<mxfile host="app.diagrams.net" agent="Mozilla/5.0 (Macintosh; Intel Mac OS X 10_15_7) AppleWebKit/537.36 (KHTML, like Gecko) Chrome/138.0.0.0 Safari/537.36 Edg/138.0.0.0" version="28.0.6">
  <diagram id="prtHgNgQTEPvFCAcTncT" name="Page-1">
    <mxGraphModel dx="996" dy="609" grid="1" gridSize="10" guides="1" tooltips="1" connect="1" arrows="1" fold="1" page="1" pageScale="1" pageWidth="827" pageHeight="1169" math="0" shadow="0">
      <root>
        <mxCell id="0" />
        <mxCell id="1" parent="0" />
        <mxCell id="9-3sKWMB5hhrohvcfJ4t-1" value="榕树权益支付信息查询" style="swimlane;childLayout=stackLayout;resizeParent=1;resizeParentMax=0;startSize=20;html=1;strokeColor=#788AA3;fontColor=#46495D;fillColor=#B2C9AB;" vertex="1" parent="1">
          <mxGeometry x="120" y="140" width="709.9999999999995" height="900" as="geometry" />
        </mxCell>
        <mxCell id="9-3sKWMB5hhrohvcfJ4t-2" value="apiofpcore" style="swimlane;startSize=20;html=1;strokeColor=#788AA3;fontColor=#46495D;fillColor=#B2C9AB;" vertex="1" parent="9-3sKWMB5hhrohvcfJ4t-1">
          <mxGeometry y="20" width="379.99999999999955" height="880" as="geometry" />
        </mxCell>
        <mxCell id="9-3sKWMB5hhrohvcfJ4t-7" value="" style="edgeStyle=orthogonalEdgeStyle;rounded=0;orthogonalLoop=1;jettySize=auto;html=1;strokeColor=#788AA3;fontColor=#46495D;fillColor=#B2C9AB;" edge="1" parent="9-3sKWMB5hhrohvcfJ4t-2" source="9-3sKWMB5hhrohvcfJ4t-5" target="9-3sKWMB5hhrohvcfJ4t-6">
          <mxGeometry relative="1" as="geometry" />
        </mxCell>
        <mxCell id="9-3sKWMB5hhrohvcfJ4t-5" value="权益支付信息查询" style="rounded=0;whiteSpace=wrap;html=1;strokeColor=#788AA3;fontColor=#46495D;fillColor=#B2C9AB;" vertex="1" parent="9-3sKWMB5hhrohvcfJ4t-2">
          <mxGeometry x="59.999999999999545" y="50" width="120" height="60" as="geometry" />
        </mxCell>
        <mxCell id="9-3sKWMB5hhrohvcfJ4t-11" value="" style="edgeStyle=orthogonalEdgeStyle;rounded=0;orthogonalLoop=1;jettySize=auto;html=1;strokeColor=#788AA3;fontColor=#46495D;fillColor=#B2C9AB;" edge="1" parent="9-3sKWMB5hhrohvcfJ4t-2" source="9-3sKWMB5hhrohvcfJ4t-6" target="9-3sKWMB5hhrohvcfJ4t-10">
          <mxGeometry relative="1" as="geometry" />
        </mxCell>
        <mxCell id="9-3sKWMB5hhrohvcfJ4t-6" value="查询用户有效的卡信息" style="rounded=0;whiteSpace=wrap;html=1;strokeColor=#788AA3;fontColor=#46495D;fillColor=#B2C9AB;" vertex="1" parent="9-3sKWMB5hhrohvcfJ4t-2">
          <mxGeometry x="59.999999999999545" y="150" width="120" height="60" as="geometry" />
        </mxCell>
        <mxCell id="9-3sKWMB5hhrohvcfJ4t-8" value="查询分账信息" style="rounded=0;whiteSpace=wrap;html=1;strokeColor=#788AA3;fontColor=#46495D;fillColor=#B2C9AB;" vertex="1" parent="9-3sKWMB5hhrohvcfJ4t-2">
          <mxGeometry x="59.999999999999545" y="460" width="120" height="60" as="geometry" />
        </mxCell>
        <mxCell id="9-3sKWMB5hhrohvcfJ4t-13" value="" style="edgeStyle=orthogonalEdgeStyle;rounded=0;orthogonalLoop=1;jettySize=auto;html=1;strokeColor=#788AA3;fontColor=#46495D;fillColor=#B2C9AB;" edge="1" parent="9-3sKWMB5hhrohvcfJ4t-2" source="9-3sKWMB5hhrohvcfJ4t-10" target="9-3sKWMB5hhrohvcfJ4t-12">
          <mxGeometry relative="1" as="geometry" />
        </mxCell>
        <mxCell id="9-3sKWMB5hhrohvcfJ4t-10" value="先查询借款申请时存的用户的下单卡id记录" style="rounded=0;whiteSpace=wrap;html=1;strokeColor=#788AA3;fontColor=#46495D;fillColor=#B2C9AB;" vertex="1" parent="9-3sKWMB5hhrohvcfJ4t-2">
          <mxGeometry x="59.999999999999545" y="250" width="120" height="60" as="geometry" />
        </mxCell>
        <mxCell id="9-3sKWMB5hhrohvcfJ4t-12" value="查询&lt;div&gt;cash_out_order_ext_info表&lt;/div&gt;" style="whiteSpace=wrap;html=1;fillColor=#B2C9AB;strokeColor=#788AA3;fontColor=#46495D;rounded=0;" vertex="1" parent="9-3sKWMB5hhrohvcfJ4t-2">
          <mxGeometry x="230" y="250" width="140" height="60" as="geometry" />
        </mxCell>
        <mxCell id="9-3sKWMB5hhrohvcfJ4t-3" value="bankcore" style="swimlane;startSize=20;html=1;strokeColor=#788AA3;fontColor=#46495D;fillColor=#B2C9AB;" vertex="1" parent="9-3sKWMB5hhrohvcfJ4t-1">
          <mxGeometry x="379.99999999999955" y="20" width="170" height="880" as="geometry" />
        </mxCell>
        <mxCell id="9-3sKWMB5hhrohvcfJ4t-4" value="支付系统" style="swimlane;startSize=20;html=1;strokeColor=#788AA3;fontColor=#46495D;fillColor=#B2C9AB;" vertex="1" parent="9-3sKWMB5hhrohvcfJ4t-1">
          <mxGeometry x="549.9999999999995" y="20" width="160" height="880" as="geometry" />
        </mxCell>
      </root>
    </mxGraphModel>
  </diagram>
</mxfile>
